<svg width="40" height="40" viewBox="0 0 40 40" fill="none" xmlns="http://www.w3.org/2000/svg">
<g clip-path="url(#clip0_207_780)">
<circle cx="20" cy="20" r="20" fill="white"/>
<path d="M8.75 22.85C8.94891 22.85 9.13968 22.929 9.28033 23.0697C9.42098 23.2103 9.5 23.4011 9.5 23.6V27.35C9.5 27.7478 9.65804 28.1294 9.93934 28.4107C10.2206 28.692 10.6022 28.85 11 28.85H29C29.3978 28.85 29.7794 28.692 30.0607 28.4107C30.342 28.1294 30.5 27.7478 30.5 27.35V23.6C30.5 23.4011 30.579 23.2103 30.7197 23.0697C30.8603 22.929 31.0511 22.85 31.25 22.85C31.4489 22.85 31.6397 22.929 31.7803 23.0697C31.921 23.2103 32 23.4011 32 23.6V27.35C32 28.1457 31.6839 28.9087 31.1213 29.4713C30.5587 30.0339 29.7956 30.35 29 30.35H11C10.2044 30.35 9.44129 30.0339 8.87868 29.4713C8.31607 28.9087 8 28.1457 8 27.35V23.6C8 23.4011 8.07902 23.2103 8.21967 23.0697C8.36032 22.929 8.55109 22.85 8.75 22.85V22.85Z" fill="#A30A7F"/>
<path d="M19.469 25.781C19.5386 25.8508 19.6214 25.9063 19.7125 25.9441C19.8036 25.9819 19.9013 26.0013 20 26.0013C20.0986 26.0013 20.1963 25.9819 20.2874 25.9441C20.3785 25.9063 20.4613 25.8508 20.531 25.781L25.031 21.281C25.1718 21.1402 25.2509 20.9492 25.2509 20.75C25.2509 20.5508 25.1718 20.3598 25.031 20.219C24.8901 20.0782 24.6991 19.9991 24.5 19.9991C24.3008 19.9991 24.1098 20.0782 23.969 20.219L20.75 23.4395V10.25C20.75 10.0511 20.671 9.86032 20.5303 9.71967C20.3896 9.57902 20.1989 9.5 20 9.5C19.8011 9.5 19.6103 9.57902 19.4696 9.71967C19.329 9.86032 19.25 10.0511 19.25 10.25V23.4395L16.031 20.219C15.8901 20.0782 15.6991 19.9991 15.5 19.9991C15.3008 19.9991 15.1098 20.0782 14.969 20.219C14.8281 20.3598 14.749 20.5508 14.749 20.75C14.749 20.9492 14.8281 21.1402 14.969 21.281L19.469 25.781V25.781Z" fill="#A30A7F"/>
</g>
<defs>
<clipPath id="clip0_207_780">
<rect width="40" height="40" fill="white"/>
</clipPath>
</defs>
</svg>
