<svg width="54" height="55" viewBox="0 0 54 55" fill="none" xmlns="http://www.w3.org/2000/svg">
<rect y="0.62384" width="54" height="54" rx="27" fill="#222222"/>
<path fill-rule="evenodd" clip-rule="evenodd" d="M27.0283 16.7905C21.0602 16.7905 16.2231 21.6276 16.2231 27.5957C16.2231 32.3689 19.3182 36.4194 23.6126 37.8494C24.1531 37.9469 24.3481 37.6144 24.3481 37.3284C24.3481 37.0716 24.3395 36.3913 24.3362 35.491C21.33 36.1432 20.6951 34.0415 20.6951 34.0415C20.2055 32.7935 19.4959 32.4609 19.4959 32.4609C18.5155 31.7904 19.5706 31.8055 19.5706 31.8055C20.6561 31.8814 21.2249 32.9192 21.2249 32.9192C22.1891 34.5702 23.7556 34.0935 24.3687 33.8173C24.4673 33.1185 24.749 32.6419 25.0566 32.3721C22.6581 32.1002 20.1361 31.1729 20.1361 27.0313C20.1361 25.8537 20.5576 24.8874 21.2455 24.1334C21.1361 23.8593 20.7623 22.7597 21.3527 21.2734C21.3527 21.2734 22.2595 20.9819 24.3232 22.3794C25.2046 22.1397 26.1138 22.0173 27.0272 22.0154C27.9407 22.0169 28.8499 22.1393 29.7312 22.3794C31.7961 20.9809 32.7017 21.2734 32.7017 21.2734C33.2921 22.7597 32.9216 23.8593 32.809 24.1334C33.5023 24.8874 33.9183 25.8526 33.9183 27.0313C33.9183 31.1837 31.3941 32.0959 28.987 32.3634C29.3716 32.6971 29.7182 33.3558 29.7182 34.3633C29.7182 35.8084 29.7052 36.9741 29.7052 37.3284C29.7052 37.6176 29.8981 37.9534 30.4495 37.8473C34.7416 36.4151 37.8335 32.3678 37.8335 27.5957C37.8335 21.6276 32.9964 16.7905 27.0283 16.7905Z" fill="#FA83DE"/>
</svg>
