<svg width="54" height="55" viewBox="0 0 54 55" fill="none" xmlns="http://www.w3.org/2000/svg">
<rect y="0.62384" width="54" height="54" rx="27" fill="#222222"/>
<path d="M19.3982 22.4206C20.7073 22.4206 21.7685 21.3594 21.7685 20.0503C21.7685 18.7412 20.7073 17.6799 19.3982 17.6799C18.0891 17.6799 17.0278 18.7412 17.0278 20.0503C17.0278 21.3594 18.0891 22.4206 19.3982 22.4206Z" fill="#FA83DE"/>
<path d="M24.0069 24.2168V37.3674H28.0899V30.8641C28.0899 29.1481 28.4128 27.4863 30.5404 27.4863C32.6389 27.4863 32.6649 29.4482 32.6649 30.9725V37.3685H36.7501V30.1567C36.7501 26.6142 35.9874 23.8918 31.8469 23.8918C29.859 23.8918 28.5265 24.9827 27.9816 26.0151H27.9264V24.2168H24.0069ZM17.353 24.2168H21.4426V37.3674H17.353V24.2168Z" fill="#FA83DE"/>
</svg>
