<svg width="153" height="48" viewBox="0 0 153 48" fill="none" xmlns="http://www.w3.org/2000/svg">
<path d="M21.0002 19.3333H22.1668C23.4045 19.3333 24.5915 19.825 25.4667 20.7001C26.3418 21.5753 26.8335 22.7623 26.8335 24C26.8335 25.2376 26.3418 26.4246 25.4667 27.2998C24.5915 28.175 23.4045 28.6666 22.1668 28.6666H21.0002M21.0002 19.3333H2.3335V29.8333C2.3335 31.071 2.82516 32.258 3.70033 33.1331C4.5755 34.0083 5.76249 34.5 7.00016 34.5H16.3335C17.5712 34.5 18.7582 34.0083 19.6333 33.1331C20.5085 32.258 21.0002 31.071 21.0002 29.8333V19.3333ZM7.00016 11.1666V14.6666M11.6668 11.1666V14.6666M16.3335 11.1666V14.6666" stroke="#C7C7C7" stroke-width="2" stroke-linecap="round" stroke-linejoin="round"/>
<path d="M37.312 11.6H46.912V14.8H40.832V20.72H45.664V23.92H40.832V30.8H46.912V34H37.312V11.6ZM48.617 11.6H52.137V30.8H57.929V34H48.617V11.6ZM59.297 11.6H68.897V14.8H62.817V20.72H67.649V23.92H62.817V30.8H68.897V34H59.297V11.6ZM70.602 11.6H75.018L78.442 25.008H78.506V11.6H81.642V34H78.026L73.802 17.648H73.738V34H70.602V11.6ZM86.6583 11.6H91.4263L95.0743 34H91.5543L90.9143 29.552V29.616H86.9143L86.2743 34H83.0103L86.6583 11.6ZM90.4983 26.576L88.9303 15.504H88.8663L87.3303 26.576H90.4983ZM101.267 11.6H104.787V34H101.267V11.6ZM111.679 34.32C109.973 34.32 108.682 33.84 107.807 32.88C106.933 31.8987 106.495 30.5013 106.495 28.688V27.408H109.823V28.944C109.823 30.3947 110.431 31.12 111.647 31.12C112.245 31.12 112.693 30.9493 112.991 30.608C113.311 30.2453 113.471 29.6693 113.471 28.88C113.471 27.9413 113.258 27.12 112.831 26.416C112.405 25.6907 111.615 24.8267 110.463 23.824C109.013 22.544 107.999 21.392 107.423 20.368C106.847 19.3227 106.559 18.1493 106.559 16.848C106.559 15.0773 107.007 13.712 107.903 12.752C108.799 11.7707 110.101 11.28 111.807 11.28C113.493 11.28 114.762 11.7707 115.615 12.752C116.49 13.712 116.927 15.0987 116.927 16.912V17.84H113.599V16.688C113.599 15.92 113.45 15.3653 113.151 15.024C112.853 14.6613 112.415 14.48 111.839 14.48C110.666 14.48 110.079 15.1947 110.079 16.624C110.079 17.4347 110.293 18.192 110.719 18.896C111.167 19.6 111.967 20.4533 113.119 21.456C114.591 22.736 115.605 23.8987 116.159 24.944C116.714 25.9893 116.991 27.216 116.991 28.624C116.991 30.4587 116.533 31.8667 115.615 32.848C114.719 33.8293 113.407 34.32 111.679 34.32ZM118.69 11.6H123.874C125.623 11.6 126.935 12.0693 127.81 13.008C128.684 13.9467 129.122 15.3227 129.122 17.136V19.344C129.122 21.1573 128.684 22.5333 127.81 23.472C126.935 24.4107 125.623 24.88 123.874 24.88H122.21V34H118.69V11.6ZM123.874 21.68C124.45 21.68 124.876 21.52 125.154 21.2C125.452 20.88 125.602 20.336 125.602 19.568V16.912C125.602 16.144 125.452 15.6 125.154 15.28C124.876 14.96 124.45 14.8 123.874 14.8H122.21V21.68H123.874ZM132.308 11.6H137.076L140.724 34H137.204L136.564 29.552V29.616H132.564L131.924 34H128.66L132.308 11.6ZM136.148 26.576L134.58 15.504H134.516L132.98 26.576H136.148ZM146.594 34.32C144.888 34.32 143.597 33.84 142.722 32.88C141.848 31.8987 141.41 30.5013 141.41 28.688V27.408H144.738V28.944C144.738 30.3947 145.346 31.12 146.562 31.12C147.16 31.12 147.608 30.9493 147.906 30.608C148.226 30.2453 148.386 29.6693 148.386 28.88C148.386 27.9413 148.173 27.12 147.746 26.416C147.32 25.6907 146.53 24.8267 145.378 23.824C143.928 22.544 142.914 21.392 142.338 20.368C141.762 19.3227 141.474 18.1493 141.474 16.848C141.474 15.0773 141.922 13.712 142.818 12.752C143.714 11.7707 145.016 11.28 146.722 11.28C148.408 11.28 149.677 11.7707 150.53 12.752C151.405 13.712 151.842 15.0987 151.842 16.912V17.84H148.514V16.688C148.514 15.92 148.365 15.3653 148.066 15.024C147.768 14.6613 147.33 14.48 146.754 14.48C145.581 14.48 144.994 15.1947 144.994 16.624C144.994 17.4347 145.208 18.192 145.634 18.896C146.082 19.6 146.882 20.4533 148.034 21.456C149.506 22.736 150.52 23.8987 151.074 24.944C151.629 25.9893 151.906 27.216 151.906 28.624C151.906 30.4587 151.448 31.8667 150.53 32.848C149.634 33.8293 148.322 34.32 146.594 34.32Z" fill="#C7C7C7"/>
</svg>
