<svg width="115" height="24" viewBox="0 0 115 24" fill="none" xmlns="http://www.w3.org/2000/svg">
<path d="M0.312 0.599998H9.912V3.8H3.832V9.72H8.664V12.92H3.832V19.8H9.912V23H0.312V0.599998ZM11.617 0.599998H15.137V19.8H20.929V23H11.617V0.599998ZM22.297 0.599998H31.897V3.8H25.817V9.72H30.649V12.92H25.817V19.8H31.897V23H22.297V0.599998ZM33.602 0.599998H38.018L41.442 14.008H41.506V0.599998H44.642V23H41.026L36.802 6.648H36.738V23H33.602V0.599998ZM49.6583 0.599998H54.4263L58.0743 23H54.5543L53.9143 18.552V18.616H49.9143L49.2743 23H46.0103L49.6583 0.599998ZM53.4983 15.576L51.9303 4.504H51.8663L50.3303 15.576H53.4983ZM64.267 0.599998H67.787V23H64.267V0.599998ZM74.6793 23.32C72.9726 23.32 71.6819 22.84 70.8073 21.88C69.9326 20.8987 69.4953 19.5013 69.4953 17.688V16.408H72.8233V17.944C72.8233 19.3947 73.4313 20.12 74.6473 20.12C75.2446 20.12 75.6926 19.9493 75.9913 19.608C76.3113 19.2453 76.4713 18.6693 76.4713 17.88C76.4713 16.9413 76.2579 16.12 75.8313 15.416C75.4046 14.6907 74.6153 13.8267 73.4633 12.824C72.0126 11.544 70.9993 10.392 70.4233 9.368C69.8473 8.32267 69.5593 7.14933 69.5593 5.848C69.5593 4.07733 70.0073 2.712 70.9033 1.752C71.7993 0.770665 73.1006 0.279999 74.8073 0.279999C76.4926 0.279999 77.7619 0.770665 78.6153 1.752C79.4899 2.712 79.9273 4.09867 79.9273 5.912V6.84H76.5993V5.688C76.5993 4.92 76.4499 4.36533 76.1513 4.024C75.8526 3.66133 75.4153 3.48 74.8393 3.48C73.6659 3.48 73.0793 4.19467 73.0793 5.624C73.0793 6.43467 73.2926 7.192 73.7193 7.896C74.1673 8.6 74.9673 9.45333 76.1193 10.456C77.5913 11.736 78.6046 12.8987 79.1593 13.944C79.7139 14.9893 79.9913 16.216 79.9913 17.624C79.9913 19.4587 79.5326 20.8667 78.6153 21.848C77.7193 22.8293 76.4073 23.32 74.6793 23.32ZM81.6895 0.599998H86.8735C88.6228 0.599998 89.9348 1.06933 90.8095 2.008C91.6842 2.94667 92.1215 4.32267 92.1215 6.136V8.344C92.1215 10.1573 91.6842 11.5333 90.8095 12.472C89.9348 13.4107 88.6228 13.88 86.8735 13.88H85.2095V23H81.6895V0.599998ZM86.8735 10.68C87.4495 10.68 87.8762 10.52 88.1535 10.2C88.4522 9.88 88.6015 9.336 88.6015 8.568V5.912C88.6015 5.144 88.4522 4.6 88.1535 4.28C87.8762 3.96 87.4495 3.8 86.8735 3.8H85.2095V10.68H86.8735ZM95.3083 0.599998H100.076L103.724 23H100.204L99.5643 18.552V18.616H95.5643L94.9243 23H91.6603L95.3083 0.599998ZM99.1483 15.576L97.5803 4.504H97.5163L95.9803 15.576H99.1483ZM109.594 23.32C107.888 23.32 106.597 22.84 105.722 21.88C104.848 20.8987 104.41 19.5013 104.41 17.688V16.408H107.738V17.944C107.738 19.3947 108.346 20.12 109.562 20.12C110.16 20.12 110.608 19.9493 110.906 19.608C111.226 19.2453 111.386 18.6693 111.386 17.88C111.386 16.9413 111.173 16.12 110.746 15.416C110.32 14.6907 109.53 13.8267 108.378 12.824C106.928 11.544 105.914 10.392 105.338 9.368C104.762 8.32267 104.474 7.14933 104.474 5.848C104.474 4.07733 104.922 2.712 105.818 1.752C106.714 0.770665 108.016 0.279999 109.722 0.279999C111.408 0.279999 112.677 0.770665 113.53 1.752C114.405 2.712 114.842 4.09867 114.842 5.912V6.84H111.514V5.688C111.514 4.92 111.365 4.36533 111.066 4.024C110.768 3.66133 110.33 3.48 109.754 3.48C108.581 3.48 107.994 4.19467 107.994 5.624C107.994 6.43467 108.208 7.192 108.634 7.896C109.082 8.6 109.882 9.45333 111.034 10.456C112.506 11.736 113.52 12.8987 114.074 13.944C114.629 14.9893 114.906 16.216 114.906 17.624C114.906 19.4587 114.448 20.8667 113.53 21.848C112.634 22.8293 111.322 23.32 109.594 23.32Z" fill="#C7C7C7"/>
</svg>
