<svg width="26" height="27" viewBox="0 0 26 27" fill="none" xmlns="http://www.w3.org/2000/svg">
<path fill-rule="evenodd" clip-rule="evenodd" d="M13.0283 2.41434C7.06023 2.41434 2.22314 7.25142 2.22314 13.2195C2.22314 17.9927 5.31823 22.0433 9.61256 23.4733C10.1531 23.5708 10.3481 23.2382 10.3481 22.9522C10.3481 22.6954 10.3395 22.0151 10.3362 21.1148C7.32998 21.767 6.69514 19.6653 6.69514 19.6653C6.20548 18.4173 5.49589 18.0848 5.49589 18.0848C4.51548 17.4142 5.57064 17.4293 5.57064 17.4293C6.65614 17.5052 7.22489 18.543 7.22489 18.543C8.18906 20.194 9.75556 19.7173 10.3687 19.4411C10.4673 18.7423 10.749 18.2657 11.0566 17.9959C8.65815 17.724 6.13614 16.7967 6.13614 12.6551C6.13614 11.4775 6.55756 10.5112 7.24548 9.75717C7.13606 9.48309 6.76231 8.38351 7.35273 6.89717C7.35273 6.89717 8.25948 6.60575 10.3232 8.00326C11.2046 7.76348 12.1138 7.64109 13.0272 7.63926C13.9407 7.64074 14.8499 7.76313 15.7312 8.00326C17.7961 6.60467 18.7017 6.89717 18.7017 6.89717C19.2921 8.38351 18.9216 9.48309 18.809 9.75717C19.5023 10.5112 19.9183 11.4764 19.9183 12.6551C19.9183 16.8075 17.3941 17.7197 14.987 17.9873C15.3716 18.3209 15.7182 18.9796 15.7182 19.9871C15.7182 21.4323 15.7052 22.5979 15.7052 22.9522C15.7052 23.2414 15.8981 23.5773 16.4495 23.4711C20.7416 22.0389 23.8335 17.9916 23.8335 13.2195C23.8335 7.25142 18.9964 2.41434 13.0283 2.41434Z" fill="#FA83DE"/>
</svg>
